<svg id="eieJYDo4Bfv1" xmlns="http://www.w3.org/2000/svg" xmlns:xlink="http://www.w3.org/1999/xlink" viewBox="0 0 300 85" shape-rendering="geometricPrecision" text-rendering="geometricPrecision"><g transform="matrix(.1 0 0-.1 0 85)"><path d="M1917,674c-3-4-2-14,3-24c6-11,4-37-6-74-17-67-15-101,6-101c8,0,14,7,12,14-2,8,0,38,4,65l7,51l22-50c28-64,52-90,70-75c16,13,35,94,35,145c0,29-4,35-21,35-16,0-19-4-14-17c10-23,6-102-5-122-7-12-16,1-40,54-17,39-34,76-38,84-10,17-26,24-35,15Z" fill="#1dfc37"/><path d="M1403,663c-43-4-61-23-23-23c11,0,20-3,19-7c0-5-6-37-13-73-10-52-16-65-32-67-10-1-28-3-38-5-13-2-29,11-49,39l-30,41l37,32c37,33,47,60,21,60-8,0-15-6-15-13s-14-26-30-42l-31-30l7,42l6,42-36-1c-22-1-35-6-33-12s12-10,21-8c13,2,15-2,11-20-29-128-31-152-13-146c6,2,17,22,23,44l11,39l17-32c22-42,60-67,84-56c10,5,44,8,75,8c40,0,58,4,58,13c0,6-10,12-23,12h-24l15,70c13,57,19,70,35,70c10,0,17,5,15,12-5,14-11,15-65,11Z" fill="#fc1d1d"/><path d="M2373,663c-43-4-61-23-22-23c15,0,19-5,15-17-2-10-10-44-17-76-11-50-15-57-32-51-14,4-18,2-15-7c6-19,118-20,118-1c0,6-12,12-26,12-17,0-24,4-21,13c2,7,10,38,17,70c9,47,15,57,32,57c11,0,18,5,16,12-5,14-11,15-65,11Z" fill="#1dfc37"/><path d="M450,650c0-5,8-10,18-10c17,0,17-4,3-75-13-64-18-74-33-69-18,5-25-10-9-20c13-9,111,6,105,15-3,5-14,9-25,9-22,0-22-3-6,75c11,50,17,61,35,63c12,2,20,8,17,13-8,12-105,12-105-1Z" fill="#fc1d1d"/><path d="M627,642c-41-27-56-53-57-93c0-46,28-73,70-67c32,5,37-1,18-21-11-10-8-12,11-9c20,2,27,13,42,65l17,61-37-5c-50-7-61-11-61-22c0-7,9-7,26,0c15,5,29,7,32,5c9-10-29-56-46-56-47,0-58,75-17,115c24,25,69,33,80,15c8-13,25-3,25,16c0,21-69,18-103-4Z" fill="#fc1d1d"/><path d="M847,648c-9-7-28-29-42-48s-35-37-47-40-23-11-26-18c-2-7,2-10,12-6c19,7,21-7,5-23s-4-44,16-37c8,3,13,9,11,13-2,3,0,16,5,29c6,17,16,22,44,22c30,0,35-3,35-23c0-27,17-47,35-41c10,4,10,13-1,42-7,20-13,61-14,90c0,54-5,60-33,40Zm3-63c0-31-3-35-25-35-14,0-25,2-25,5c0,7,42,65,47,65c2,0,3-16,3-35Z" fill="#fc1d1d"/><path d="M1040,650c0-5,9-10,21-10c15,0,19-5,15-17-2-10-10-44-16-76-9-43-15-57-26-53-8,3-14-1-14-11c0-12,7-14,31-9c17,3,42,6,55,6s24,5,24,10c0,6-11,10-25,10-15,0-23,5-20,13c2,6,9,38,15,70c9,46,15,57,31,57c10,0,19,5,19,10c0,6-25,10-55,10s-55-4-55-10Z" fill="#fc1d1d"/><path d="M1513,644c-30-15-49-41-39-52c3-2,19,7,36,22c19,15,44,26,61,26c53,0,48-48-7-64-19-6-21-3-16,19c3,17,0,25-10,25-11,0-20-23-30-77-9-43-14-80-12-82c11-13,33,14,39,48c4,23,10,41,15,41s18-16,30-35c22-36,47-44,68-23c18,18,15,27-7,21-12-3-24,3-35,18-21,31-20,34,9,47c29,14,36,66,9,76-28,11-78,6-111-10Z" fill="#1dfc37"/><path d="M1683,648c2-7,12-12,21-11c13,1,15-4,10-15-20-47-27-111-15-126c17-20,50-20,79,0c12,8,22,11,22,5s10-15,21-22c17-9,24-8,38,6c15,17,15,17-2,12-27-10-31,16-14,86c8,34,14,63,12,65-1,1-10,0-19-4s-19-23-23-47c-3-23-18-53-34-71-26-29-29-30-45-14-17,17-17,20,0,70c9,29,20,59,23,66c3,8-8,12-37,12s-40-4-37-12Z" fill="#1dfc37"/><path d="M2140,653c-24-9-50-35-50-50c0-10,9-7,31,11c56,47,139,26,139-35c0-39-48-89-86-89-26,0-27,1-20,43c3,23,9,52,12,65c5,16,2,22-9,22-17,0-34-48-39-110-3-33-1-35,31-38c69-7,141,50,141,111c0,38-7,50-37,66-22,11-86,14-113,4Z" fill="#1dfc37"/><path d="M2001,624c0-11,3-14,6-6c3,7,2,16-1,19-3,4-6-2-5-13Z" fill="#1dfc37"/><path d="M2190,549c0-5,5-7,10-4c6,3,10,8,10,11c0,2-4,4-10,4-5,0-10-5-10-11Z" fill="#1dfc37"/><path d="M1413,433c9-2,23-2,30,0c6,3-1,5-18,5-16,0-22-2-12-5Z" fill="#1dfc37"/><path d="M1728,433c6-2,18-2,25,0c6,3,1,5-13,5s-19-2-12-5Z" fill="#1dfc37"/><path d="M2198,433c7-3,16-2,19,1c4,3-2,6-13,5-11,0-14-3-6-6Z" fill="#1dfc37"/><path d="M2378,433c6-2,18-2,25,0c6,3,1,5-13,5s-19-2-12-5Z" fill="#1dfc37"/><path d="M1418,393c7-3,16-2,19,1c4,3-2,6-13,5-11,0-14-3-6-6Z" fill="#1dfc37"/><path d="M2388,393c7-3,16-2,19,1c4,3-2,6-13,5-11,0-14-3-6-6Z" fill="#1dfc37"/></g></svg>